<svg version="1.1" xmlns:svg="http://www.w3.org/2000/svg" xmlns="http://www.w3.org/2000/svg" width="600mm" height="300mm" viewBox="0 0 600 300"><g xmlns="http://www.w3.org/2000/svg" id="drawing-layer" fill="none" fill-rule="none" stroke="#ff0000" stroke-width="none" stroke-linecap="none" stroke-linejoin="miter" stroke-miterlimit="10" stroke-dasharray="" stroke-dashoffset="0" font-family="none" font-weight="none" font-size="none" text-anchor="none" style="mix-blend-mode: normal"><path d="M0,24.29078v6.26h3.3v8.78h-3.3v6.26h10.32v-3.3h8.78v3.3h8.78v-3.3h8.78v3.3h8.78v-3.3h8.78v3.3h8.78v-3.3h8.78v3.3h10.32v-6.26h-3.3v-8.78h3.3v-6.26z" data-paper-data="{&quot;rotation&quot;:0}" id="front_outsideCutPath" fill-rule="evenodd" stroke-width="0.1" stroke-linecap="round"/><path d="M0,0.48428v6.26h3.3v8.78h-3.3v6.26h10.32v-3.3h8.78v3.3h8.78v-3.3h8.78v3.3h8.78v-3.3h8.78v3.3h8.78v-3.3h8.78v3.3h10.32v-6.26h-3.3v-8.78h3.3v-6.26z" data-paper-data="{&quot;rotation&quot;:0}" id="back_outsideCutPath" fill-rule="evenodd" stroke-width="0.1" stroke-linecap="round"/><path d="M101.51857,3.3v4.74h-3.3v8.78h3.3v8.78h-3.3v8.78h3.3v8.78h-3.3v8.78h3.3v8.78h-3.3v8.78h3.3v8.78h-3.3v8.78h3.3v4.74h7.02v3.3h8.78v-3.3h8.78v3.3h8.78v-3.3h8.78v3.3h8.78v-3.3h8.78v3.3h8.78v-3.3h7.02v-4.74h3.3v-8.78h-3.3v-8.78h3.3v-8.78h-3.3v-8.78h3.3v-8.78h-3.3v-8.78h3.3v-8.78h-3.3v-8.78h3.3v-8.78h-3.3v-4.74h-7.02v-3.3h-8.78v3.3h-8.78v-3.3h-8.78v3.3h-8.78v-3.3h-8.78v3.3h-8.78v-3.3h-8.78v3.3z" data-paper-data="{&quot;rotation&quot;:0}" id="bottom_outsideCutPath" fill-rule="evenodd" stroke-width="0.1" stroke-linecap="round"/><g><path d="M3.41868,71.3262v6.26h-3.3v8.78h3.3v6.26h4.74v-3.3h8.78v3.3h8.78v-3.3h8.78v3.3h8.78v-3.3h8.78v3.3h8.78v-3.3h8.78v3.3h8.78v-3.3h8.78v3.3h4.74v-6.26h3.3v-8.78h-3.3v-6.26z" data-paper-data="{&quot;rotation&quot;:0}" id="left_outsideCutPath" fill-rule="evenodd" stroke-width="0.1" stroke-linecap="round"/><path d="M3.41868,47.0262v6.26h-3.3v8.78h3.3v6.26h4.74v-3.3h8.78v3.3h8.78v-3.3h8.78v3.3h8.78v-3.3h8.78v3.3h8.78v-3.3h8.78v3.3h8.78v-3.3h8.78v3.3h4.74v-6.26h3.3v-8.78h-3.3v-6.26z" data-paper-data="{&quot;rotation&quot;:0}" id="right_outsideCutPath" fill-rule="evenodd" stroke-width="0.1" stroke-linecap="round"/><path d="M16.38645,56.99389v-7h12v7z" data-paper-data="{&quot;tool&quot;:&quot;shapeTool&quot;,&quot;type&quot;:&quot;shape&quot;,&quot;id&quot;:&quot;5e136408-2d25-440d-9a04-3d17cb5004e1&quot;,&quot;rotation&quot;:0}" fill-rule="nonzero" stroke-width="0.4" stroke-linecap="butt"/></g></g></svg>