<svg version="1.1" xmlns:svg="http://www.w3.org/2000/svg" xmlns="http://www.w3.org/2000/svg" width="600mm" height="300mm" viewBox="0 0 600 300"><g xmlns="http://www.w3.org/2000/svg" id="drawing-layer" fill="none" fill-rule="none" stroke="#ff0000" stroke-width="none" stroke-linecap="none" stroke-linejoin="miter" stroke-miterlimit="10" stroke-dasharray="" stroke-dashoffset="0" font-family="none" font-weight="none" font-size="none" text-anchor="none" style="mix-blend-mode: normal"><path d="M13.26211,8.6383v-4.34h10.91v4.34z" data-paper-data="{&quot;tool&quot;:&quot;shapeTool&quot;,&quot;type&quot;:&quot;shape&quot;,&quot;id&quot;:&quot;5e136408-2d25-440d-9a04-3d17cb5004e1&quot;,&quot;rotation&quot;:0}" fill-rule="nonzero" stroke-width="0.4" stroke-linecap="butt"/><path d="M0.26577,0.66936v6.855h4v8.29h-4v6.855h11.095v-4h8.29v4h8.29v-4h8.29v4h8.29v-4h8.29v4h8.29v-4h8.29v4h8.29v-4h8.29v4h8.29h2.805v-6.855h-4v-8.29h4v-6.855z" data-paper-data="{&quot;rotation&quot;:0}" id="front_outsideCutPath" fill-rule="evenodd" stroke-width="0.1" stroke-linecap="round"/><path d="M102.38502,0.50963v6.855h-4v8.29h4v6.855h8.485v-4h8.29v4h8.29v-4h8.29v4h8.29v-4h8.29v4h8.29v-4h8.29v4h8.29h0.195v-6.855h4v-8.29h-4v-6.855z" data-paper-data="{&quot;rotation&quot;:0}" id="left_outsideCutPath" fill-rule="evenodd" stroke-width="0.1" stroke-linecap="round"/><path d="M0,25.7414v6.855h4v8.29h-4v6.855h11.095v-4h8.29v4h8.29v-4h8.29v4h8.29v-4h8.29v4h8.29v-4h8.29v4h8.29v-4h8.29v4h8.29h2.805v-6.855h-4v-8.29h4v-6.855z" data-paper-data="{&quot;rotation&quot;:0}" id="back_outsideCutPath" fill-rule="evenodd" stroke-width="0.1" stroke-linecap="round"/><path d="M103.8,26.44889v6.855h-4v8.29h4v6.855h8.485v-4h8.29v4h8.29v-4h8.29v4h8.29v-4h8.29v4h8.29v-4h8.29v4h8.29h0.195v-6.855h4v-8.29h-4v-6.855z" data-paper-data="{&quot;rotation&quot;:0}" id="right_outsideCutPath" fill-rule="evenodd" stroke-width="0.1" stroke-linecap="round"/><path d="M189.8,4v8.485h-4v8.29h4v8.29h-4v8.29h4v8.29h-4v8.29h4v8.29h-4v8.29h4v8.29v0.195h7.095v4h8.29v-4h8.29v4h8.29v-4h8.29v4h8.29v-4h8.29v4h8.29v-4h8.29v4h8.29v-4h7.095v-8.485h4v-8.29h-4v-8.29h4v-8.29h-4v-8.29h4v-8.29h-4v-8.29h4v-8.29h-4v-8.29v-0.195h-7.095v-4h-8.29v4h-8.29v-4h-8.29v4h-8.29v-4h-8.29v4h-8.29v-4h-8.29v4h-8.29v-4h-8.29v4z" data-paper-data="{&quot;rotation&quot;:0}" id="bottom_outsideCutPath" fill-rule="evenodd" stroke-width="0.1" stroke-linecap="round"/></g></svg>